<?xml version="1.0" standalone="no"?>
<!DOCTYPE svg PUBLIC "-//W3C//DTD SVG 20010904//EN"
 "http://www.w3.org/TR/2001/REC-SVG-20010904/DTD/svg10.dtd">
<svg version="1.0" xmlns="http://www.w3.org/2000/svg"
 width="1291.000000pt" height="1024.000000pt" viewBox="0 0 1291.000000 1024.000000"
 preserveAspectRatio="xMidYMid meet">
<metadata>
Created by potrace 1.16, written by Peter Selinger 2001-2019
</metadata>
<g transform="translate(0.000000,1024.000000) scale(0.100000,-0.100000)"
fill="#000000" stroke="none">
<path d="M3566 7698 c-8 -30 -8 -2976 0 -3005 4 -13 13 -23 20 -23 8 0 14 -4
14 -10 0 -5 13 -10 29 -10 16 0 31 -6 35 -15 3 -9 18 -15 36 -15 16 0 30 -4
30 -10 0 -5 14 -10 30 -10 20 0 30 -5 30 -15 0 -10 10 -15 31 -15 17 0 37 -7
45 -15 9 -8 24 -15 35 -15 10 0 19 -4 19 -10 0 -5 16 -10 35 -10 24 0 35 -5
35 -15 0 -10 10 -15 30 -15 17 0 30 -4 30 -10 0 -5 16 -10 35 -10 24 0 35 -5
35 -15 0 -10 10 -15 30 -15 17 0 30 -4 30 -10 0 -5 13 -10 29 -10 16 0 31 -6
35 -15 3 -9 18 -15 35 -15 16 0 31 -4 33 -10 2 -5 14 -11 27 -13 14 -2 27 -9
29 -15 2 -7 17 -12 34 -12 16 0 36 -7 44 -15 9 -8 24 -15 35 -15 10 0 19 -4
19 -10 0 -5 16 -10 35 -10 24 0 35 -5 35 -15 0 -10 10 -15 30 -15 17 0 30 -4
30 -10 0 -5 14 -10 30 -10 18 0 33 -6 36 -15 4 -8 18 -15 34 -15 16 0 30 -5
32 -11 2 -6 16 -11 32 -11 15 -1 30 -7 33 -14 3 -8 18 -14 34 -14 16 0 29 -4
29 -9 0 -5 13 -12 30 -16 16 -4 32 -11 35 -16 4 -5 17 -9 31 -9 14 0 27 -7 30
-15 4 -9 19 -15 35 -15 16 0 29 -4 29 -10 0 -5 14 -10 30 -10 18 0 33 -6 36
-15 4 -9 19 -15 35 -15 16 0 29 -4 29 -9 0 -5 16 -12 35 -15 19 -4 35 -11 35
-16 0 -6 14 -10 30 -10 17 0 30 -4 30 -10 0 -5 16 -12 35 -16 19 -3 33 -10 30
-14 -3 -4 11 -11 30 -14 19 -4 35 -11 35 -16 0 -5 6 -7 14 -4 7 3 16 -2 19
-10 4 -10 18 -16 36 -16 16 0 31 -6 35 -15 3 -8 17 -15 31 -15 14 0 25 -4 25
-10 0 -5 9 -10 19 -10 28 0 52 -11 45 -21 -3 -5 4 -9 15 -9 12 0 21 -4 21 -10
0 -5 14 -10 30 -10 20 0 30 -5 30 -15 0 -8 9 -15 20 -15 11 0 20 -4 20 -9 0
-5 14 -12 30 -16 17 -4 30 -11 30 -16 0 -5 7 -9 15 -9 8 0 15 -3 15 -8 0 -4
23 -17 50 -30 28 -13 50 -27 50 -32 0 -6 7 -10 15 -10 8 0 15 -4 15 -10 0 -5
7 -10 15 -10 8 0 15 -7 15 -15 0 -20 -56 -20 -64 0 -4 10 -20 15 -51 15 -25 0
-45 5 -45 10 0 6 -13 10 -30 10 -20 0 -30 5 -30 15 0 11 -12 15 -44 15 -25 0
-48 5 -51 10 -3 6 -19 10 -35 10 -15 0 -30 7 -34 15 -3 9 -18 15 -35 15 -16 0
-31 4 -33 9 -1 5 -23 11 -48 14 -24 3 -46 10 -48 16 -2 6 -16 11 -32 11 -16 0
-30 7 -34 15 -4 10 -20 15 -51 15 -25 0 -45 5 -45 10 0 6 -16 10 -35 10 -24 0
-35 5 -35 15 0 11 -12 15 -45 15 -25 0 -45 5 -45 10 0 6 -13 10 -29 10 -16 0
-31 6 -35 15 -4 10 -20 15 -51 15 -25 0 -45 5 -45 10 0 6 -13 10 -29 10 -16 0
-31 6 -35 15 -3 9 -18 15 -40 15 -18 0 -46 6 -61 14 -15 8 -34 12 -41 9 -8 -3
-17 2 -20 11 -3 9 -16 16 -28 16 -11 0 -32 3 -44 7 -18 4 -20 8 -10 14 8 6 -5
9 -34 9 -27 0 -48 5 -48 10 0 6 -10 10 -22 10 -13 0 -34 3 -46 7 -18 4 -20 8
-10 14 8 6 -5 9 -34 9 -27 0 -48 5 -48 10 0 6 -13 10 -29 10 -16 0 -31 6 -35
15 -4 10 -20 15 -51 15 -25 0 -45 5 -45 10 0 6 -13 10 -29 10 -16 0 -31 6 -35
15 -3 10 -19 15 -46 15 -24 0 -48 7 -57 15 -9 9 -23 13 -34 10 -12 -4 -21 -1
-25 9 -4 11 -19 16 -50 16 -32 0 -44 4 -44 15 0 10 -11 15 -35 15 -19 0 -35 4
-35 9 0 4 -19 11 -42 14 -24 3 -44 11 -46 16 -2 6 -19 11 -38 11 -19 0 -34 4
-34 9 0 4 -19 11 -42 14 -24 3 -44 11 -46 16 -2 6 -19 11 -38 11 -19 0 -34 5
-34 10 0 6 -13 10 -29 10 -16 0 -31 6 -35 15 -4 10 -20 15 -50 15 -31 0 -46 5
-50 16 -4 11 -14 15 -32 11 -16 -3 -28 1 -31 9 -3 9 -21 14 -49 14 -24 0 -44
5 -44 10 0 6 -7 10 -15 10 -13 0 -15 161 -17 1368 l-3 1367 -32 10 c-18 5 -33
13 -33 17 0 4 -13 8 -29 8 -16 0 -31 6 -35 15 -3 9 -18 15 -36 15 -16 0 -30 4
-30 9 0 4 -19 11 -42 14 -24 3 -44 11 -46 16 -2 6 -19 11 -38 11 -19 0 -34 5
-34 11 0 6 -19 9 -47 7 l-48 -3 -3 -1542 c-2 -1538 -2 -1542 18 -1548 11 -4
18 -11 15 -16 -4 -5 12 -9 34 -9 23 0 41 -4 41 -10 0 -5 18 -10 40 -10 23 0
42 -6 47 -14 4 -8 28 -16 53 -19 25 -3 47 -6 50 -7 3 0 -2 -5 -10 -11 -11 -7
-7 -9 20 -8 53 2 62 0 55 -11 -4 -6 13 -10 44 -10 39 0 51 -4 51 -15 0 -11 12
-15 45 -15 25 0 45 -4 45 -10 0 -5 16 -10 35 -10 24 0 35 -5 35 -15 0 -11 12
-15 45 -15 25 0 45 -4 45 -9 0 -4 21 -11 47 -14 26 -3 49 -10 51 -16 2 -6 19
-11 38 -11 19 0 34 -4 34 -9 0 -4 19 -11 42 -14 24 -3 44 -11 46 -16 2 -6 16
-11 30 -11 39 0 73 -11 66 -21 -3 -5 11 -9 30 -9 19 0 38 -4 41 -10 3 -6 26
-10 51 -10 32 0 44 -4 44 -15 0 -11 12 -15 45 -15 25 0 45 -4 45 -10 0 -5 15
-10 34 -10 21 0 36 -6 40 -15 4 -10 20 -15 51 -15 25 0 45 -4 45 -10 0 -5 10
-10 23 -10 35 0 67 -11 61 -21 -3 -5 13 -9 35 -9 23 0 41 -4 41 -9 0 -5 23
-11 50 -15 28 -4 50 -10 50 -15 0 -5 19 -11 42 -14 24 -3 44 -11 46 -16 2 -6
19 -11 38 -11 19 0 34 -4 34 -9 0 -6 21 -11 48 -13 27 -2 45 -7 42 -13 -5 -10
37 -20 128 -32 27 -3 42 -10 42 -19 0 -10 13 -14 45 -14 25 0 45 -4 45 -10 0
-5 15 -10 34 -10 21 0 36 -6 40 -15 4 -10 20 -15 51 -15 32 0 45 -4 45 -14 0
-11 12 -15 42 -14 23 0 44 -5 46 -11 2 -6 16 -11 32 -11 37 0 61 -10 54 -21
-3 -5 13 -9 35 -9 23 0 41 -4 41 -10 0 -5 20 -10 45 -10 31 0 47 -5 51 -15 4
-9 19 -15 40 -15 19 0 34 -4 34 -10 0 -5 20 -10 45 -10 38 0 45 -3 45 -20 0
-13 5 -18 15 -14 11 5 15 -1 15 -21 0 -16 4 -24 11 -19 6 3 24 -8 39 -25 16
-17 34 -31 39 -31 6 0 11 -4 11 -10 0 -5 5 -10 11 -10 6 0 17 -7 25 -15 9 -8
26 -15 40 -15 15 0 24 -6 24 -15 0 -11 12 -15 44 -15 25 0 48 -4 51 -10 8 -14
472 -14 480 0 3 6 22 10 41 10 20 0 33 4 29 9 -3 6 10 13 30 17 19 3 35 10 35
15 0 5 9 9 19 9 11 0 26 7 35 15 8 8 19 15 24 15 6 0 12 7 16 15 3 8 12 15 20
15 7 0 16 9 19 21 3 12 10 18 16 14 6 -3 11 2 11 12 0 25 35 53 65 53 14 0 25
5 25 10 0 6 18 10 41 10 22 0 38 4 35 9 -7 10 27 21 67 21 15 0 27 5 27 10 0
6 20 10 45 10 33 0 45 4 45 15 0 10 10 15 34 15 19 0 36 5 38 12 3 8 21 12 46
11 31 -1 42 2 42 13 0 10 13 14 50 14 35 0 49 4 47 13 -1 7 12 13 36 15 20 2
37 7 37 13 0 5 20 9 45 9 33 0 45 4 45 15 0 11 12 15 45 15 25 0 45 5 45 10 0
6 18 10 41 10 24 0 38 4 34 10 -3 6 -5 10 -3 11 2 0 23 3 48 6 25 3 47 9 48
14 2 5 24 9 48 9 30 0 46 5 50 15 4 8 18 15 34 15 16 0 30 5 32 10 2 6 23 12
48 14 24 2 46 9 48 15 2 6 24 11 48 11 32 0 44 4 44 15 0 10 11 15 35 15 19 0
35 5 35 10 0 6 23 10 50 10 38 0 50 4 50 15 0 11 12 15 45 15 25 0 45 5 45 10
0 6 15 10 34 10 19 0 36 6 39 13 3 7 22 14 43 15 22 2 43 7 48 12 6 6 27 10
48 10 25 0 41 5 44 15 4 9 19 15 39 15 18 0 35 5 37 11 2 5 22 13 46 16 23 3
42 10 42 14 0 5 23 9 50 9 38 0 50 4 50 15 0 10 10 15 29 15 17 0 33 5 36 10
3 6 26 10 51 10 32 0 44 4 44 15 0 11 12 15 50 15 28 0 50 5 50 10 0 6 16 10
35 10 23 0 34 4 32 13 -1 8 14 13 46 15 26 2 47 7 47 11 0 5 21 11 47 14 26 3
49 10 51 16 2 6 16 11 32 11 16 0 30 5 32 11 2 6 25 13 51 16 26 3 47 10 47
14 0 5 14 9 30 9 17 0 40 8 50 18 20 18 20 40 18 1558 l-3 1539 -47 3 c-29 2
-48 -1 -48 -7 0 -6 -14 -11 -30 -11 -18 0 -33 -6 -36 -15 -4 -9 -19 -15 -35
-15 -16 0 -29 -4 -29 -10 0 -5 -20 -10 -45 -10 -31 0 -47 -5 -51 -15 -4 -9
-19 -15 -36 -15 -17 0 -27 -4 -23 -10 6 -10 -7 -14 -32 -11 -7 1 -13 -6 -13
-15 0 -10 -5 -14 -15 -10 -13 5 -15 -150 -15 -1359 0 -1207 -2 -1365 -15
-1365 -8 0 -15 -4 -15 -10 0 -5 -13 -10 -29 -10 -16 0 -31 -5 -33 -11 -2 -6
-23 -11 -46 -11 -29 1 -45 -4 -49 -14 -3 -8 -19 -14 -40 -14 -19 0 -32 -4 -28
-10 3 -5 -16 -12 -45 -16 -27 -4 -50 -10 -50 -15 0 -5 -13 -9 -29 -9 -16 0
-33 -6 -39 -13 -6 -7 -28 -14 -49 -15 -21 -2 -39 -7 -41 -12 -2 -6 -19 -10
-38 -10 -24 0 -34 -5 -34 -15 0 -11 -12 -15 -45 -15 -25 0 -45 -4 -45 -10 0
-5 -14 -10 -30 -10 -18 0 -33 -6 -36 -15 -4 -9 -19 -15 -39 -15 -18 0 -35 -5
-37 -12 -3 -7 -21 -12 -42 -11 -24 1 -39 -4 -43 -13 -3 -9 -20 -14 -45 -14
-21 0 -37 -4 -34 -9 6 -10 -26 -21 -61 -21 -13 0 -23 -4 -23 -10 0 -5 -18 -10
-41 -10 -22 0 -38 -4 -35 -9 6 -10 -26 -21 -61 -21 -13 0 -23 -4 -23 -10 0 -5
-18 -10 -41 -10 -22 0 -38 -4 -35 -9 6 -10 -26 -21 -61 -21 -13 0 -23 -4 -23
-10 0 -5 -16 -10 -35 -10 -24 0 -35 -5 -35 -15 0 -11 -12 -15 -44 -15 -28 0
-46 -5 -49 -14 -3 -7 -18 -14 -33 -13 -16 0 -30 -6 -32 -12 -2 -6 -24 -11 -48
-11 -32 0 -44 -4 -44 -15 0 -10 -11 -15 -35 -15 -19 0 -35 -4 -35 -10 0 -5
-20 -10 -45 -10 -31 0 -47 -5 -51 -15 -4 -9 -19 -15 -35 -15 -16 0 -29 -4 -29
-10 0 -5 -21 -10 -46 -10 -25 0 -43 -4 -40 -9 7 -11 -17 -21 -50 -21 -13 0
-24 -4 -24 -10 0 -5 -15 -10 -34 -10 -19 0 -36 -5 -38 -11 -2 -5 -23 -13 -47
-16 -23 -3 -45 -12 -48 -19 -3 -8 -18 -14 -33 -14 -16 0 -32 -4 -35 -10 -3 -5
-24 -10 -46 -10 -26 0 -42 -5 -45 -15 -4 -9 -19 -15 -35 -15 -16 0 -29 -4 -29
-10 0 -5 -22 -10 -50 -10 -38 0 -50 -4 -50 -15 0 -10 -10 -15 -30 -15 -16 0
-30 -4 -30 -10 0 -5 -20 -10 -45 -10 -31 0 -47 -5 -51 -15 -4 -8 -17 -15 -29
-15 -13 0 -27 -4 -30 -10 -11 -17 -45 -32 -45 -19 0 6 9 13 19 16 11 3 22 12
25 20 3 8 10 11 16 8 5 -3 10 1 10 9 0 9 7 16 15 16 8 0 15 5 15 10 0 6 7 10
15 10 8 0 15 5 15 10 0 6 6 10 14 10 8 0 17 7 20 16 4 9 13 14 21 10 8 -3 15
0 15 7 0 7 20 21 45 32 25 11 45 23 45 28 0 4 9 7 20 7 11 0 20 4 20 9 0 5 14
12 30 16 17 4 30 11 30 16 0 5 14 9 30 9 20 0 30 5 30 15 0 8 9 15 20 15 11 0
20 5 20 10 0 6 14 10 30 10 20 0 30 5 30 15 0 10 11 15 35 15 25 0 35 4 35 16
0 11 6 13 19 9 11 -3 25 1 34 10 9 8 27 15 42 15 14 0 28 7 31 15 4 9 19 15
35 15 16 0 29 5 29 10 0 6 14 10 30 10 20 0 30 5 30 15 0 10 11 15 35 15 19 0
35 5 35 10 0 6 14 10 30 10 20 0 30 5 30 15 0 10 10 15 34 15 20 0 36 6 39 14
4 9 14 12 26 9 14 -3 23 0 27 11 4 10 18 16 40 16 25 0 34 4 34 16 0 11 6 15
20 11 11 -3 27 1 34 9 8 8 26 14 40 14 14 0 29 7 33 15 5 8 21 16 36 17 15 1
27 6 27 10 0 4 15 8 33 8 23 0 28 3 18 9 -11 7 -5 11 22 16 20 4 37 11 37 16
0 5 3 8 8 8 26 -4 62 3 57 11 -3 5 7 12 22 16 15 4 34 11 41 17 7 5 26 10 43
9 16 0 27 4 24 9 -4 5 7 12 24 15 17 4 31 10 31 15 0 4 16 11 35 15 19 3 35 9
35 13 0 4 12 8 27 9 15 1 29 6 33 11 3 5 18 13 33 16 15 4 30 11 33 16 3 5 18
9 35 9 16 0 29 4 29 9 0 5 14 12 30 16 17 4 30 11 30 16 0 5 16 9 35 9 19 0
35 4 35 10 0 5 12 13 28 16 15 4 30 11 33 16 3 5 20 10 37 10 17 1 30 6 29 12
-1 6 13 12 31 14 17 2 32 7 32 12 0 5 14 11 30 15 17 4 30 11 30 16 0 5 16 9
35 9 19 0 35 4 35 9 0 5 14 12 30 16 17 4 30 11 30 16 0 5 9 9 20 9 11 0 20 7
20 15 0 8 7 15 15 15 13 0 15 172 15 1486 l0 1487 -26 23 c-20 19 -36 24 -78
24 -39 0 -55 -4 -60 -15 -3 -9 -18 -15 -36 -15 -16 0 -30 -4 -30 -10 0 -5 -12
-10 -26 -10 -14 0 -23 -4 -20 -9 7 -10 -17 -21 -45 -21 -10 0 -19 -5 -19 -11
0 -5 -4 -7 -10 -4 -5 3 -10 1 -10 -5 0 -6 -10 -8 -26 -4 -18 5 -25 3 -21 -3 8
-12 -14 -23 -44 -23 -10 0 -19 -5 -19 -11 0 -5 -4 -7 -10 -4 -5 3 -10 1 -10
-4 0 -6 -13 -11 -30 -11 -16 0 -30 -4 -30 -10 0 -5 -14 -10 -30 -10 -18 0 -33
-6 -36 -15 -4 -9 -19 -15 -35 -15 -16 0 -29 -4 -29 -10 0 -5 -14 -10 -30 -10
-18 0 -33 -6 -36 -15 -4 -8 -18 -15 -34 -15 -15 0 -30 -6 -33 -14 -4 -9 -14
-12 -28 -9 -14 4 -25 0 -31 -11 -5 -9 -21 -16 -38 -16 -21 0 -30 -5 -30 -16 0
-11 -6 -15 -20 -11 -11 3 -27 -1 -34 -9 -8 -8 -28 -14 -45 -14 -21 0 -31 -5
-31 -15 0 -10 -10 -15 -30 -15 -16 0 -30 -4 -30 -10 0 -5 -16 -10 -35 -10 -24
0 -35 -5 -35 -15 0 -10 -10 -15 -30 -15 -16 0 -30 -4 -30 -10 0 -5 -14 -10
-30 -10 -18 0 -33 -6 -36 -15 -4 -8 -18 -15 -34 -15 -15 0 -30 -6 -33 -14 -3
-8 -15 -12 -31 -9 -18 4 -28 0 -32 -11 -4 -10 -18 -16 -35 -16 -19 0 -29 -5
-29 -15 0 -10 -10 -15 -29 -15 -17 0 -33 -4 -36 -10 -3 -5 -19 -10 -36 -10
-19 0 -29 -5 -29 -15 0 -10 -10 -15 -30 -15 -16 0 -30 -4 -30 -10 0 -5 -16
-10 -35 -10 -24 0 -35 -5 -35 -15 0 -10 -10 -15 -30 -15 -16 0 -30 -4 -30 -10
0 -5 -14 -10 -30 -10 -18 0 -33 -6 -36 -15 -4 -9 -19 -15 -35 -15 -16 0 -29
-4 -29 -10 0 -5 -11 -10 -24 -10 -14 0 -31 -7 -40 -15 -8 -8 -26 -15 -40 -15
-16 0 -26 -6 -26 -15 0 -8 -7 -15 -15 -15 -8 0 -15 -4 -15 -10 0 -5 -11 -10
-24 -10 -14 0 -31 -7 -40 -15 -8 -8 -19 -15 -25 -15 -6 0 -11 -4 -11 -10 0 -5
-14 -10 -30 -10 -18 0 -33 -6 -36 -15 -4 -8 -12 -15 -20 -15 -8 0 -14 -4 -14
-10 0 -5 -5 -10 -11 -10 -6 0 -30 -13 -54 -30 -24 -16 -48 -30 -54 -30 -6 0
-11 -7 -11 -15 0 -8 -7 -15 -15 -15 -8 0 -15 -4 -15 -10 0 -5 -7 -10 -15 -10
-8 0 -15 -5 -15 -11 0 -14 -47 -59 -61 -59 -5 0 -9 -7 -9 -15 0 -8 -6 -15 -14
-15 -7 0 -16 -9 -19 -21 -3 -12 -10 -18 -16 -14 -7 3 -11 -2 -11 -15 0 -11 -7
-23 -15 -26 -8 -3 -17 -15 -21 -26 -3 -11 -12 -17 -20 -14 -10 4 -14 -2 -14
-19 0 -16 -6 -25 -15 -25 -9 0 -15 -9 -15 -24 0 -13 -7 -29 -15 -36 -13 -10
-15 -9 -15 9 0 11 -6 20 -12 19 -7 -2 -14 7 -16 20 -2 12 -10 22 -18 22 -8 0
-14 7 -14 15 0 8 -9 20 -20 27 -11 7 -20 21 -20 31 0 10 -5 15 -11 12 -6 -4
-13 2 -16 13 -3 11 -11 23 -19 26 -8 3 -14 12 -14 21 0 8 -7 15 -15 15 -8 0
-15 9 -15 21 0 12 -4 17 -11 13 -6 -3 -24 8 -39 25 -16 17 -34 31 -39 31 -6 0
-11 7 -11 15 0 8 -7 15 -15 15 -8 0 -15 5 -15 10 0 6 -7 10 -15 10 -9 0 -18 7
-21 15 -4 8 -12 15 -20 15 -8 0 -14 4 -14 9 0 5 -13 12 -30 16 -16 4 -30 11
-30 16 0 5 -6 9 -14 9 -8 0 -16 3 -18 8 -5 11 -64 42 -82 42 -9 0 -16 7 -16
15 0 14 -17 20 -47 16 -7 -1 -13 3 -13 9 0 5 -9 10 -20 10 -11 0 -20 7 -20 15
0 10 -10 15 -30 15 -17 0 -30 5 -30 13 0 6 -14 13 -32 14 -18 2 -34 7 -36 13
-2 5 -17 10 -33 10 -19 0 -29 5 -29 15 0 10 -11 15 -35 15 -19 0 -35 5 -35 10
0 6 -13 10 -30 10 -20 0 -30 5 -30 15 0 10 -11 15 -35 15 -19 0 -35 5 -35 10
0 6 -11 10 -25 10 -14 0 -28 7 -31 15 -4 9 -19 15 -35 15 -16 0 -29 4 -29 9 0
5 -16 12 -35 15 -19 4 -35 11 -35 16 0 6 -12 10 -26 10 -14 0 -32 7 -40 15 -9
8 -26 15 -40 15 -13 0 -24 5 -24 10 0 6 -13 10 -29 10 -16 0 -31 6 -35 15 -3
9 -18 15 -36 15 -16 0 -30 5 -30 10 0 6 -13 10 -30 10 -20 0 -30 5 -30 15 0
10 -11 15 -35 15 -19 0 -35 5 -35 10 0 6 -13 10 -30 10 -20 0 -30 5 -30 15 0
10 -10 15 -31 15 -17 0 -37 7 -46 16 -9 8 -22 13 -30 10 -7 -3 -16 1 -19 9 -4
8 -19 15 -34 15 -16 0 -30 7 -34 15 -3 9 -18 15 -36 15 -16 0 -30 5 -30 10 0
6 -13 10 -29 10 -16 0 -31 6 -35 15 -3 9 -18 15 -36 15 -16 0 -30 5 -30 10 0
6 -13 10 -30 10 -20 0 -30 5 -30 15 0 10 -11 15 -35 15 -19 0 -35 5 -35 10 0
6 -13 10 -30 10 -20 0 -30 5 -30 15 0 10 -10 15 -34 15 -21 0 -36 6 -40 15 -3
8 -17 15 -31 15 -14 0 -25 5 -25 10 0 6 -16 10 -35 10 -24 0 -35 5 -35 15 0
10 -10 15 -30 15 -16 0 -30 5 -30 10 0 6 -13 10 -29 10 -16 0 -31 6 -35 15 -4
11 -21 15 -65 15 -52 0 -59 -2 -65 -22z m434 -503 c7 -8 21 -15 31 -15 11 0
19 -4 19 -10 0 -5 16 -10 35 -10 24 0 35 -5 35 -15 0 -10 10 -15 34 -15 22 0
36 -6 40 -16 4 -10 13 -13 25 -9 12 3 23 0 28 -9 4 -8 22 -16 38 -18 17 -2 29
-8 28 -15 -2 -9 9 -13 32 -13 19 0 35 -4 35 -10 0 -5 14 -10 30 -10 20 0 30
-5 30 -15 0 -10 11 -15 35 -15 19 0 35 -4 35 -10 0 -5 14 -10 30 -10 20 0 30
-5 30 -15 0 -10 10 -15 29 -15 16 0 31 -5 33 -11 2 -6 16 -11 32 -11 15 0 30
-7 33 -14 3 -8 18 -14 33 -14 16 0 30 -7 34 -15 3 -9 18 -15 36 -15 16 0 30
-4 30 -10 0 -5 14 -10 30 -10 20 0 30 -5 30 -15 0 -10 10 -15 29 -15 17 0 33
-4 36 -10 3 -5 19 -10 36 -10 19 0 29 -5 29 -15 0 -10 10 -15 30 -15 17 0 30
-4 30 -10 0 -5 16 -10 35 -10 24 0 35 -5 35 -15 0 -10 10 -15 29 -15 16 0 31
-5 33 -10 2 -6 17 -12 33 -14 16 -2 31 -8 33 -15 2 -6 16 -11 32 -11 16 0 30
-7 34 -15 3 -9 18 -15 36 -15 16 0 30 -4 30 -10 0 -5 14 -10 30 -10 20 0 30
-5 30 -15 0 -10 10 -15 34 -15 19 0 36 -4 38 -10 2 -5 14 -11 27 -13 14 -2 27
-9 29 -15 2 -7 10 -12 18 -12 8 0 14 -5 14 -10 0 -6 3 -9 8 -9 31 5 62 -3 62
-16 0 -10 10 -15 30 -15 21 0 30 -5 30 -16 0 -8 5 -12 11 -9 6 4 16 0 22 -8 7
-9 23 -17 37 -19 15 -2 24 -9 22 -17 -2 -9 3 -11 13 -7 9 3 18 -1 21 -9 4 -8
12 -15 20 -15 8 0 14 -4 14 -9 0 -5 13 -12 29 -16 16 -3 32 -13 35 -21 3 -8
10 -14 16 -14 15 0 50 -33 50 -47 0 -7 7 -10 15 -7 10 4 15 0 15 -16 0 -12 4
-18 10 -15 12 7 90 -66 90 -84 0 -6 7 -11 15 -11 9 0 15 -9 15 -25 0 -17 4
-23 14 -19 10 4 16 -5 21 -25 4 -17 13 -31 21 -31 8 0 14 -4 14 -10 0 -5 20
-10 44 -10 41 0 45 2 48 28 2 19 8 27 21 26 12 -1 17 6 17 27 0 19 5 29 15 29
8 0 15 9 15 20 0 11 7 20 15 20 8 0 15 7 15 15 0 8 4 15 10 15 5 0 23 14 40
30 17 17 35 28 41 25 5 -4 9 1 9 9 0 9 5 16 10 16 6 0 21 11 34 25 13 14 28
25 34 25 5 0 12 7 16 15 3 8 12 15 21 15 8 0 15 5 15 10 0 6 7 10 15 10 8 0
15 5 15 10 0 6 9 10 19 10 11 0 26 7 35 15 8 8 22 15 30 15 9 0 16 7 16 15 0
9 6 15 13 14 16 -2 77 23 77 33 0 4 16 10 35 14 19 3 35 10 35 15 0 5 11 9 25
9 14 0 28 7 31 15 4 8 14 15 23 15 24 0 92 26 85 32 -3 3 10 9 28 13 18 4 36
11 39 16 3 5 17 10 32 11 15 1 29 8 31 15 3 7 16 13 30 13 13 0 26 5 28 11 2
6 20 11 40 12 25 1 34 5 31 14 -4 9 4 13 26 13 17 0 31 4 31 10 0 5 16 12 35
16 19 3 35 10 35 15 0 5 13 9 29 9 16 0 31 6 35 15 3 8 16 15 30 15 14 0 28 5
31 10 3 6 19 10 36 10 19 0 29 5 29 15 0 10 10 15 30 15 17 0 30 5 30 10 0 6
16 10 35 10 24 0 35 5 35 15 0 10 10 15 29 15 16 0 31 6 34 14 3 7 18 14 33
14 16 0 30 5 32 11 2 6 16 11 32 11 16 0 30 7 34 15 3 9 18 15 36 15 16 0 30
5 30 10 0 6 14 10 30 10 20 0 30 5 30 15 0 10 11 15 35 15 19 0 35 5 35 10 0
6 14 10 30 10 20 0 30 5 30 15 0 10 10 15 29 15 16 0 31 6 34 14 3 8 14 12 25
9 10 -2 26 3 35 11 8 9 27 16 40 16 14 0 27 7 31 15 3 9 18 15 36 15 16 0 30
5 30 10 0 6 11 10 25 10 14 0 28 7 31 15 4 8 12 15 20 15 12 0 14 -174 14
-1155 0 -1020 -2 -1155 -15 -1155 -8 0 -15 -4 -15 -10 0 -5 -13 -10 -30 -10
-20 0 -30 -5 -30 -15 0 -10 -10 -15 -29 -15 -17 0 -32 -4 -36 -9 -3 -5 -19
-12 -35 -16 -17 -4 -30 -11 -30 -16 0 -5 -13 -9 -30 -9 -16 0 -30 -4 -30 -9 0
-5 -16 -12 -35 -15 -19 -4 -35 -11 -35 -16 0 -6 -16 -10 -36 -10 -19 0 -33 -4
-30 -9 7 -10 -17 -21 -45 -21 -10 0 -19 -4 -19 -10 0 -5 -13 -10 -29 -10 -16
0 -31 -6 -35 -15 -3 -9 -18 -15 -35 -15 -16 0 -31 -5 -33 -11 -2 -5 -18 -11
-35 -11 -18 -1 -31 -6 -30 -12 1 -6 -13 -12 -30 -14 -18 -2 -33 -7 -33 -12 0
-5 -13 -11 -30 -15 -16 -4 -30 -11 -30 -16 0 -5 -16 -9 -35 -9 -19 0 -35 -4
-35 -9 0 -5 -13 -12 -30 -16 -16 -4 -30 -11 -30 -16 0 -5 -16 -9 -36 -9 -21 0
-33 -4 -29 -10 3 -6 3 -10 -2 -11 -32 -3 -59 -11 -61 -19 -2 -6 -19 -10 -38
-10 -20 0 -33 -4 -30 -9 7 -10 -16 -21 -44 -21 -10 0 -20 -5 -22 -11 -2 -5
-18 -11 -35 -11 -18 -1 -31 -6 -30 -12 1 -6 -13 -12 -30 -14 -18 -2 -33 -7
-33 -12 0 -5 -13 -11 -30 -15 -16 -4 -32 -11 -35 -16 -4 -5 -19 -9 -36 -9 -16
0 -29 -4 -29 -9 0 -5 -13 -12 -30 -16 -16 -4 -32 -11 -35 -16 -4 -5 -25 -9
-48 -9 -28 0 -37 -3 -28 -9 10 -7 5 -11 -18 -16 -17 -3 -31 -11 -31 -16 0 -5
-9 -9 -19 -9 -11 0 -26 -7 -35 -15 -8 -8 -22 -15 -30 -15 -9 0 -16 -4 -16 -9
0 -5 -13 -12 -30 -16 -16 -4 -30 -11 -30 -16 0 -5 -7 -9 -15 -9 -8 0 -15 -4
-15 -9 0 -5 -15 -12 -34 -15 -19 -4 -37 -13 -40 -22 -3 -8 -10 -12 -16 -9 -5
3 -10 -1 -10 -9 0 -9 -7 -16 -15 -16 -8 0 -15 -4 -15 -10 0 -5 -9 -10 -20 -10
-11 0 -20 -4 -20 -10 0 -5 -7 -10 -15 -10 -8 0 -15 -7 -15 -15 0 -8 -7 -15
-15 -15 -8 0 -15 -4 -15 -10 0 -5 -7 -10 -15 -10 -8 0 -15 -7 -15 -15 0 -8 -7
-15 -15 -15 -8 0 -15 -7 -15 -15 0 -8 -9 -15 -20 -15 -11 0 -20 -7 -20 -15 0
-8 -7 -15 -15 -15 -8 0 -15 -9 -15 -20 0 -11 -7 -20 -15 -20 -8 0 -15 -7 -15
-15 0 -9 -6 -18 -14 -21 -8 -3 -16 -14 -19 -25 -3 -10 -12 -19 -20 -19 -9 0
-17 -10 -19 -22 -2 -13 -9 -22 -16 -21 -7 2 -12 -7 -12 -21 0 -13 -7 -29 -15
-36 -12 -10 -15 -10 -15 4 0 9 -7 16 -15 16 -9 0 -15 9 -15 25 0 16 -6 25 -15
25 -8 0 -15 7 -15 15 0 8 -9 19 -20 25 -11 6 -20 17 -20 24 0 8 -7 16 -15 20
-8 3 -15 12 -15 21 0 8 -7 15 -15 15 -8 0 -15 9 -15 20 0 13 -5 18 -15 14 -10
-4 -15 0 -15 15 0 12 -6 21 -13 21 -7 0 -24 13 -37 30 -14 16 -31 29 -37 30
-7 0 -13 7 -13 15 0 8 -7 15 -15 15 -8 0 -15 5 -15 10 0 6 -7 10 -15 10 -9 0
-18 7 -21 15 -4 8 -10 15 -16 15 -5 0 -16 7 -24 15 -9 8 -24 15 -35 15 -10 0
-19 5 -19 10 0 6 -6 10 -14 10 -8 0 -16 7 -20 15 -3 9 -18 15 -37 15 -22 0
-30 4 -26 14 4 10 0 12 -14 9 -13 -4 -19 0 -19 11 0 11 -9 16 -31 16 -21 0
-40 9 -55 25 -13 14 -34 25 -49 25 -16 0 -25 6 -25 15 0 10 -11 15 -35 15 -19
0 -35 5 -35 10 0 6 -13 10 -30 10 -20 0 -30 5 -30 15 0 10 -11 15 -35 15 -19
0 -35 5 -35 10 0 6 -13 10 -30 10 -20 0 -30 5 -30 15 0 10 -10 15 -34 15 -22
0 -36 6 -40 16 -4 11 -13 14 -27 11 -12 -3 -22 0 -26 9 -3 8 -18 14 -34 14
-17 0 -32 6 -35 15 -4 9 -19 15 -35 15 -16 0 -29 5 -29 10 0 6 -13 10 -29 10
-16 0 -31 6 -35 15 -3 9 -18 15 -36 15 -16 0 -30 5 -30 10 0 6 -13 10 -30 10
-20 0 -30 5 -30 15 0 10 -10 15 -31 15 -17 0 -37 6 -45 14 -7 8 -23 12 -34 9
-14 -4 -20 0 -20 11 0 12 -9 16 -35 16 -26 0 -35 4 -35 16 0 12 -7 15 -26 11
-16 -3 -28 0 -31 9 -3 8 -19 14 -39 14 -24 0 -34 5 -34 15 0 10 -10 15 -30 15
-16 0 -30 5 -30 10 0 6 -14 10 -30 10 -18 0 -33 6 -36 15 -4 9 -19 15 -35 15
-16 0 -29 5 -29 10 0 6 -13 10 -29 10 -16 0 -31 6 -35 15 -3 8 -17 15 -31 15
-15 0 -33 6 -41 14 -7 8 -23 12 -34 9 -14 -4 -20 0 -20 11 0 12 -9 16 -35 16
-24 0 -35 5 -35 15 0 9 -9 15 -22 15 -13 0 -33 3 -45 6 l-23 6 0 1153 c0 913
-3 1154 -12 1158 -8 4 -9 6 -2 6 6 1 17 -6 24 -14z"/>
<path d="M8635 6050 c0 -624 1 -880 2 -568 2 313 2 823 0 1135 -1 313 -2 57
-2 -567z"/>
<path d="M4210 6630 l0 -140 31 0 c17 0 37 -7 45 -15 9 -8 24 -15 35 -15 10 0
19 -4 19 -10 0 -5 16 -10 35 -10 24 0 35 -5 35 -15 0 -10 10 -15 30 -15 17 0
30 -4 30 -10 0 -5 14 -10 30 -10 18 0 33 -6 36 -15 4 -8 18 -15 34 -15 16 0
30 -4 32 -10 2 -5 14 -11 27 -13 14 -2 27 -9 29 -15 2 -7 17 -12 32 -12 16 0
31 -4 35 -9 3 -5 19 -12 35 -16 17 -4 30 -10 30 -15 0 -4 14 -10 31 -14 20 -4
28 -10 23 -17 -5 -9 0 -10 14 -7 12 4 25 2 28 -3 3 -5 10 -7 15 -4 5 4 9 2 9
-3 0 -6 17 -13 37 -17 27 -5 33 -9 22 -16 -10 -6 -5 -9 19 -9 17 0 32 -4 32
-10 0 -5 13 -10 29 -10 16 0 31 -6 35 -15 3 -9 19 -15 41 -15 22 0 34 -4 30
-10 -4 -6 8 -10 29 -10 25 0 36 -4 36 -15 0 -9 10 -15 26 -15 14 0 32 -7 41
-16 9 -8 22 -13 30 -10 7 3 16 -1 19 -9 4 -9 19 -15 36 -15 16 0 36 -7 44 -15
9 -8 24 -15 35 -15 10 0 19 -4 19 -9 0 -5 14 -12 30 -16 17 -4 28 -11 24 -16
-3 -5 6 -9 20 -9 13 0 26 -4 28 -10 2 -5 13 -11 26 -13 13 -2 27 -8 30 -13 8
-12 75 -44 91 -44 6 0 11 -4 11 -10 0 -5 7 -10 15 -10 8 0 15 -4 15 -10 0 -5
7 -10 15 -10 8 0 15 -4 15 -9 0 -9 38 -24 53 -22 4 1 10 -6 13 -14 4 -8 12
-15 20 -15 8 0 14 -4 14 -10 0 -5 7 -10 15 -10 8 0 15 -7 15 -15 0 -8 4 -15
10 -15 5 0 30 -20 54 -45 25 -25 50 -45 56 -45 5 0 10 -9 10 -20 0 -11 7 -20
15 -20 8 0 15 -4 15 -10 0 -5 16 -10 35 -10 l35 0 0 60 c0 47 -3 60 -15 60
-11 0 -15 12 -15 44 0 35 -4 45 -20 49 -13 3 -20 14 -20 30 0 14 -7 27 -15 31
-8 3 -15 17 -15 31 0 14 -5 24 -12 23 -7 -2 -14 7 -16 20 -2 12 -10 22 -18 22
-8 0 -14 9 -14 21 0 12 -4 17 -11 13 -6 -3 -24 8 -39 25 -16 17 -34 31 -39 31
-6 0 -11 7 -11 15 0 8 -7 15 -15 15 -8 0 -15 5 -15 10 0 6 -7 10 -15 10 -8 0
-15 5 -15 10 0 6 -7 10 -15 10 -9 0 -18 7 -21 15 -4 8 -12 15 -20 15 -8 0 -14
4 -14 9 0 5 -13 12 -30 16 -16 4 -30 11 -30 16 0 5 -7 9 -15 9 -9 0 -26 9 -38
21 -12 11 -34 23 -49 26 -16 3 -28 12 -28 19 0 8 -9 14 -20 14 -11 0 -20 5
-20 10 0 6 -13 10 -30 10 -20 0 -30 5 -30 15 0 10 -10 15 -29 15 -17 0 -31 6
-35 16 -4 11 -14 15 -32 11 -16 -3 -28 1 -31 9 -3 8 -18 14 -33 14 -16 0 -30
7 -34 15 -3 9 -18 15 -36 15 -16 0 -30 5 -30 10 0 6 -13 10 -30 10 -20 0 -30
5 -30 15 0 10 -11 15 -35 15 -19 0 -35 5 -35 10 0 6 -13 10 -30 10 -20 0 -30
5 -30 15 0 10 -10 15 -31 15 -17 0 -37 6 -45 14 -7 8 -23 12 -34 9 -14 -4 -20
0 -20 11 0 12 -9 16 -35 16 -24 0 -35 5 -35 15 0 10 -10 15 -30 15 -16 0 -30
5 -30 10 0 6 -13 10 -29 10 -16 0 -31 6 -35 15 -3 9 -18 15 -36 15 -16 0 -30
5 -30 10 0 6 -13 10 -30 10 -20 0 -30 5 -30 15 0 10 -11 15 -35 15 -19 0 -35
5 -35 10 0 6 -13 10 -30 10 -20 0 -30 5 -30 15 0 10 -10 15 -31 15 -17 0 -37
7 -45 15 -9 8 -24 15 -35 15 -10 0 -19 5 -19 10 0 6 -22 10 -50 10 l-50 0 0
-140z"/>
<path d="M8313 6754 c-3 -9 -13 -14 -24 -11 -10 3 -17 0 -16 -6 1 -7 -16 -15
-38 -18 -22 -3 -35 -7 -30 -8 15 -4 -97 -40 -123 -41 -13 0 -21 -4 -18 -9 6
-9 -80 -41 -112 -41 -11 0 -22 -7 -26 -15 -3 -9 -18 -15 -35 -15 -16 0 -31 -6
-34 -14 -4 -9 -14 -12 -28 -9 -14 4 -25 0 -31 -11 -5 -9 -20 -16 -32 -16 -13
0 -26 -7 -30 -15 -3 -9 -18 -15 -36 -15 -16 0 -30 -4 -30 -10 0 -5 -16 -10
-35 -10 -23 0 -34 -4 -33 -12 2 -8 -10 -14 -29 -16 -18 -2 -33 -7 -33 -13 0
-5 -16 -9 -35 -9 -24 0 -35 -5 -35 -15 0 -10 -10 -15 -30 -15 -16 0 -30 -4
-30 -10 0 -5 -14 -10 -30 -10 -18 0 -33 -6 -36 -15 -4 -8 -18 -15 -34 -15 -15
0 -30 -6 -33 -14 -3 -8 -14 -12 -25 -9 -10 2 -26 -3 -35 -11 -8 -9 -27 -16
-40 -16 -14 0 -27 -7 -31 -15 -3 -9 -18 -15 -36 -15 -16 0 -30 -4 -30 -10 0
-5 -9 -10 -19 -10 -11 0 -26 -7 -35 -15 -8 -8 -19 -15 -25 -15 -6 0 -11 -4
-11 -10 0 -5 -9 -10 -20 -10 -11 0 -19 -6 -17 -12 1 -7 -5 -14 -13 -14 -8 -1
-19 -3 -25 -4 -5 -1 -13 -2 -17 -1 -5 0 -8 -6 -8 -14 0 -8 -7 -15 -15 -15 -8
0 -15 -4 -15 -10 0 -5 -9 -10 -20 -10 -11 0 -20 -4 -20 -9 0 -5 -12 -12 -26
-15 -14 -4 -36 -18 -48 -31 -13 -14 -26 -25 -30 -25 -4 0 -20 -13 -36 -30 -16
-16 -34 -30 -40 -30 -5 0 -10 -9 -10 -20 0 -11 -7 -20 -15 -20 -8 0 -15 -7
-15 -15 0 -9 -7 -18 -15 -21 -8 -4 -15 -15 -15 -25 0 -10 -7 -19 -15 -19 -9 0
-15 -10 -15 -26 0 -17 -6 -28 -20 -31 -16 -4 -20 -14 -20 -44 0 -28 -4 -39
-15 -39 -12 0 -14 -16 -13 -80 l1 -80 32 0 c25 0 34 5 38 21 3 12 10 18 16 14
7 -3 11 2 11 14 0 12 7 21 15 21 8 0 15 7 15 15 0 8 5 15 11 15 5 0 23 14 39
31 18 20 33 28 41 24 8 -5 10 -4 5 4 -8 12 30 50 52 51 6 0 12 5 12 10 0 6 7
10 15 10 8 0 15 4 15 9 0 5 16 12 35 15 19 4 35 11 35 16 0 6 7 10 15 10 8 0
15 7 15 15 0 8 9 15 20 15 11 0 20 5 20 10 0 6 14 10 30 10 20 0 30 5 30 15 0
10 10 15 29 15 16 0 31 6 35 15 3 8 12 12 21 9 10 -4 15 -2 13 7 -2 9 8 15 30
17 17 2 32 7 32 13 0 5 11 9 25 9 14 0 28 7 31 15 4 9 19 15 40 15 24 0 34 5
34 15 0 10 10 15 30 15 17 0 30 5 30 10 0 6 14 10 30 10 18 0 33 6 36 15 4 9
19 15 35 15 16 0 29 5 29 10 0 6 14 10 30 10 18 0 33 6 36 15 4 9 19 15 35 15
16 0 29 5 29 10 0 6 14 10 30 10 20 0 30 5 30 15 0 10 10 15 34 15 20 0 36 6
39 14 4 9 14 12 26 9 14 -3 23 0 27 11 4 10 18 16 40 16 25 0 34 4 34 16 0 12
6 15 25 10 18 -5 27 -2 31 9 4 9 19 15 40 15 24 0 34 5 34 15 0 10 10 15 30
15 17 0 30 5 30 10 0 6 14 10 30 10 18 0 33 6 36 15 4 9 19 15 35 15 16 0 29
5 29 10 0 6 14 10 30 10 18 0 33 6 36 15 4 9 19 15 35 15 20 0 29 5 29 16 0
12 6 15 25 10 18 -5 27 -2 31 9 4 8 15 15 25 15 18 0 19 9 19 140 l0 140 -45
0 c-32 0 -47 -5 -52 -16z"/>
<path d="M4217 6103 c-12 -11 -8 -265 3 -258 6 3 12 0 15 -7 3 -7 19 -14 37
-15 17 -1 34 -7 37 -12 4 -5 19 -13 35 -17 20 -5 24 -9 14 -15 -9 -6 -6 -9 11
-9 33 0 94 -22 104 -37 4 -7 21 -13 37 -13 17 0 30 -4 30 -10 0 -5 14 -10 30
-10 20 0 30 -5 30 -15 0 -10 10 -15 31 -15 17 0 37 -6 45 -14 7 -8 23 -12 34
-9 14 4 20 0 20 -11 0 -11 9 -16 26 -16 14 0 32 -7 40 -15 9 -8 26 -15 40 -15
13 0 24 -4 24 -10 0 -5 14 -10 30 -10 20 0 30 -5 30 -15 0 -10 11 -15 35 -15
19 0 35 -4 35 -10 0 -5 14 -10 30 -10 20 0 30 -5 30 -15 0 -10 11 -15 35 -15
19 0 35 -4 35 -9 0 -5 14 -12 30 -16 17 -4 30 -11 30 -16 0 -5 13 -9 29 -9 30
0 50 -15 30 -22 -7 -2 5 -4 26 -5 21 -1 40 -6 44 -11 3 -6 19 -14 35 -18 20
-5 24 -9 14 -15 -9 -6 -2 -9 20 -9 17 0 32 -4 32 -10 0 -5 14 -10 30 -10 20 0
30 -5 30 -15 0 -10 11 -15 35 -15 19 0 35 -4 35 -9 0 -5 11 -12 25 -15 14 -4
25 -11 25 -16 0 -6 9 -10 20 -10 11 0 20 -4 20 -10 0 -5 16 -12 35 -16 19 -3
35 -10 35 -15 0 -5 7 -9 15 -9 8 0 15 -4 15 -10 0 -5 7 -10 15 -10 8 0 15 -5
15 -10 0 -6 3 -9 8 -8 16 3 63 -23 57 -32 -3 -6 1 -7 9 -4 9 4 18 -1 22 -10 3
-9 12 -16 20 -16 8 0 14 -4 14 -10 0 -5 7 -10 15 -10 8 0 15 -7 15 -15 0 -8 6
-15 14 -15 8 0 16 -7 20 -15 3 -8 12 -15 21 -15 8 0 15 -7 15 -15 0 -8 7 -15
15 -15 8 0 15 -7 15 -15 0 -8 7 -15 15 -15 8 0 15 -9 15 -20 0 -11 7 -20 15
-20 8 0 15 -7 15 -15 0 -10 11 -15 35 -15 l35 0 0 70 c0 58 -3 68 -15 64 -12
-5 -15 4 -15 44 0 41 -3 50 -17 48 -13 -1 -19 8 -21 32 -2 20 -9 32 -18 32 -8
0 -14 10 -14 25 0 16 -6 25 -15 25 -8 0 -15 9 -15 20 0 11 -7 20 -15 20 -8 0
-15 9 -15 20 0 13 -5 18 -15 14 -8 -4 -15 -1 -15 6 0 14 -46 60 -61 60 -5 0
-9 7 -9 15 0 8 -7 15 -15 15 -8 0 -15 4 -15 10 0 5 -7 7 -15 4 -8 -4 -15 -2
-15 4 0 5 -9 12 -21 15 -12 3 -18 10 -14 16 3 7 0 8 -9 5 -9 -4 -18 1 -22 10
-3 9 -12 16 -20 16 -8 0 -14 4 -14 10 0 5 -16 12 -35 16 -19 3 -35 10 -35 15
0 5 -5 9 -11 9 -7 0 -21 10 -33 23 -11 12 -32 23 -46 25 -14 2 -30 10 -36 18
-6 8 -23 14 -38 14 -14 0 -26 4 -26 9 0 5 -13 12 -30 16 -16 4 -30 10 -30 15
0 5 -15 10 -32 12 -18 2 -32 8 -31 14 1 6 -12 11 -29 12 -17 0 -34 5 -37 10
-3 6 -20 12 -36 14 -17 2 -29 8 -28 16 2 8 -9 12 -32 12 -19 0 -35 5 -35 10 0
6 -9 10 -19 10 -11 0 -26 7 -35 15 -8 8 -26 15 -40 15 -14 0 -27 4 -31 9 -3 5
-19 12 -35 16 -17 4 -30 11 -30 16 0 5 -13 9 -29 9 -17 0 -32 4 -36 9 -3 5
-19 12 -35 16 -17 4 -30 10 -30 15 0 4 -14 10 -31 14 -19 4 -28 10 -23 17 5 9
-1 10 -20 5 -14 -3 -26 -2 -26 3 0 10 -9 13 -64 26 -23 5 -27 8 -15 16 10 6 5
9 -18 9 -18 0 -33 5 -33 10 0 6 -16 10 -35 10 -24 0 -35 5 -35 15 0 10 -10 15
-30 15 -16 0 -30 5 -30 10 0 6 -14 10 -30 10 -18 0 -33 6 -36 15 -4 8 -17 15
-31 15 -13 0 -31 7 -39 15 -16 15 -104 21 -117 8z"/>
<path d="M8314 6096 c-4 -9 -18 -16 -34 -16 -16 0 -30 -7 -34 -15 -3 -9 -18
-15 -36 -15 -16 0 -30 -4 -30 -10 0 -5 -13 -10 -29 -10 -16 0 -31 -6 -35 -15
-3 -9 -18 -15 -36 -15 -16 0 -30 -4 -30 -10 0 -5 -13 -10 -30 -10 -20 0 -30
-5 -30 -15 0 -10 -11 -15 -35 -15 -19 0 -35 -4 -35 -10 0 -5 -16 -10 -35 -10
-26 0 -33 -3 -29 -15 5 -11 -1 -15 -24 -15 -17 0 -33 -4 -37 -9 -3 -5 -19 -12
-35 -16 -17 -4 -30 -11 -30 -16 0 -5 -16 -9 -36 -9 -19 0 -33 -4 -30 -9 3 -5
-10 -12 -29 -15 -19 -4 -35 -11 -35 -16 0 -6 -16 -10 -36 -10 -19 0 -33 -4
-30 -9 3 -5 -10 -12 -29 -15 -19 -4 -35 -11 -35 -16 0 -6 -16 -10 -36 -10 -19
0 -33 -4 -30 -9 4 -5 -8 -13 -26 -16 -18 -4 -36 -12 -39 -18 -4 -5 -20 -10
-37 -11 -17 0 -28 -4 -26 -7 5 -8 -32 -19 -64 -19 -12 0 -25 -7 -28 -15 -4 -9
-19 -15 -35 -15 -16 0 -29 -4 -29 -10 0 -5 -9 -10 -20 -10 -11 0 -20 -4 -20
-9 0 -5 -13 -12 -30 -16 -16 -4 -30 -11 -30 -16 0 -5 -9 -9 -20 -9 -11 0 -19
-6 -17 -12 1 -8 -11 -14 -30 -16 -21 -2 -33 -9 -33 -18 0 -8 -7 -14 -15 -14
-8 0 -15 -4 -15 -10 0 -5 -7 -10 -15 -10 -8 0 -15 -4 -15 -9 0 -5 -16 -12 -35
-15 -19 -4 -35 -11 -35 -16 0 -6 -7 -10 -15 -10 -8 0 -15 -7 -15 -15 0 -8 -7
-15 -15 -15 -8 0 -15 -4 -15 -10 0 -5 -7 -10 -15 -10 -8 0 -15 -7 -15 -15 0
-8 -6 -15 -14 -15 -8 0 -16 -7 -20 -15 -3 -8 -12 -15 -20 -15 -7 0 -16 -9 -19
-21 -3 -12 -10 -18 -16 -14 -7 3 -11 -2 -11 -15 0 -11 -7 -23 -15 -26 -8 -4
-15 -15 -15 -25 0 -10 -6 -19 -14 -19 -9 0 -16 -12 -18 -27 -2 -20 -8 -28 -20
-27 -15 2 -18 -7 -18 -43 0 -36 -3 -44 -15 -39 -13 4 -15 -9 -15 -85 l0 -90
33 3 c24 2 33 8 35 26 2 12 10 22 18 22 8 0 14 7 14 15 0 8 7 15 15 15 8 0 15
7 15 15 0 8 5 15 11 15 5 0 23 14 39 31 15 17 33 28 39 25 6 -4 11 0 11 8 0 9
6 16 14 16 8 0 17 7 20 16 4 9 9 14 12 11 3 -3 16 5 29 19 12 13 30 24 39 24
9 0 16 4 16 9 0 8 37 24 53 22 4 -1 7 3 7 9 0 5 6 10 14 10 8 0 16 7 20 15 3
9 18 15 36 15 16 0 30 5 30 10 0 6 6 10 14 10 8 0 16 7 20 15 3 8 17 15 31 15
14 0 25 5 25 10 0 6 14 10 30 10 18 0 33 6 36 15 4 8 15 15 25 15 10 0 19 5
19 11 0 5 4 8 9 4 5 -3 13 0 16 6 4 5 13 8 21 5 8 -3 14 1 14 9 0 10 10 15 30
15 17 0 30 5 30 10 0 6 9 10 19 10 11 0 26 7 35 15 8 8 28 15 44 15 17 0 32 5
34 12 2 6 15 13 29 15 13 2 26 8 27 13 2 6 19 10 38 10 24 0 34 5 34 15 0 10
10 15 30 15 17 0 30 5 30 10 0 6 16 10 35 10 24 0 35 5 35 15 0 10 10 15 30
15 17 0 30 5 30 10 0 6 14 10 30 10 18 0 33 6 36 15 4 9 19 15 35 15 16 0 29
4 29 10 0 5 16 12 35 16 19 3 35 10 35 15 0 5 13 9 29 9 16 0 31 6 35 15 3 8
17 15 31 15 14 0 25 5 25 10 0 6 16 10 35 10 24 0 35 5 35 15 0 10 10 15 30
15 17 0 30 5 30 10 0 6 16 10 35 10 24 0 35 5 35 15 0 10 10 15 30 15 17 0 30
4 30 9 0 5 16 12 35 15 l36 7 -3 137 -3 137 -43 3 c-31 2 -44 -1 -48 -12z"/>
<path d="M4223 5463 c-10 -3 -13 -41 -13 -139 0 -114 2 -134 15 -134 9 0 18
-7 21 -15 4 -8 18 -15 34 -15 16 0 30 -7 34 -15 3 -9 18 -15 36 -15 16 0 30
-4 30 -10 0 -5 14 -10 30 -10 20 0 30 -5 30 -15 0 -10 10 -15 30 -15 17 0 30
-4 30 -10 0 -5 16 -10 35 -10 24 0 35 -5 35 -15 0 -10 10 -15 29 -15 16 0 31
-5 33 -11 2 -6 16 -11 32 -11 15 0 30 -7 33 -14 3 -8 16 -14 30 -14 13 0 31
-7 39 -15 9 -8 26 -15 40 -15 13 0 24 -4 24 -10 0 -5 14 -10 30 -10 20 0 30
-5 30 -15 0 -10 10 -15 30 -15 17 0 30 -4 30 -10 0 -5 14 -10 30 -10 18 0 33
-6 36 -15 4 -9 19 -15 35 -15 16 0 29 -4 29 -9 0 -5 16 -12 35 -15 20 -4 33
-11 30 -15 -2 -5 11 -12 30 -15 21 -4 33 -11 29 -18 -4 -6 1 -8 15 -3 14 4 23
1 27 -9 4 -9 18 -16 34 -16 16 0 30 -7 34 -15 3 -8 17 -15 31 -15 14 0 25 -4
25 -10 0 -5 16 -10 35 -10 24 0 35 -5 35 -15 0 -10 10 -15 30 -15 17 0 30 -4
30 -10 0 -5 9 -10 19 -10 11 0 26 -7 35 -15 8 -8 22 -15 30 -15 9 0 16 -4 16
-9 0 -5 14 -12 30 -16 17 -4 30 -11 30 -16 0 -5 9 -9 20 -9 11 0 20 -4 20 -9
0 -5 14 -12 30 -16 17 -4 30 -11 30 -16 0 -5 7 -9 15 -9 8 0 15 -4 15 -10 0
-5 7 -10 15 -10 9 0 18 -7 21 -15 4 -8 12 -15 20 -15 8 0 14 -4 14 -10 0 -5 7
-10 15 -10 8 0 15 -7 15 -16 0 -8 5 -12 10 -9 6 3 13 -1 16 -9 3 -9 12 -16 19
-16 7 0 15 -7 19 -15 3 -8 12 -15 21 -15 8 0 15 -7 15 -16 0 -8 5 -12 10 -9 6
3 13 -1 16 -9 3 -9 12 -16 20 -16 8 0 14 -10 14 -24 0 -19 8 -27 33 -35 55
-19 67 -8 67 60 0 42 -4 58 -12 57 -9 -2 -14 13 -16 43 -2 37 -7 48 -23 52
-12 3 -19 14 -19 30 0 14 -7 27 -15 31 -8 3 -15 14 -15 25 0 10 -7 21 -15 25
-8 3 -15 12 -15 21 0 8 -7 15 -15 15 -8 0 -15 9 -15 20 0 11 -6 20 -13 20 -7
0 -24 13 -37 30 -14 16 -31 29 -37 30 -7 0 -13 7 -13 16 0 8 -5 12 -10 9 -6
-3 -13 1 -16 9 -3 9 -12 16 -20 16 -8 0 -14 4 -14 10 0 10 -69 44 -83 41 -4 0
-10 6 -13 14 -4 8 -15 15 -25 15 -10 0 -19 4 -19 10 0 5 -11 12 -25 16 -14 3
-25 10 -25 15 0 5 -9 9 -20 9 -11 0 -20 7 -20 16 0 8 -5 12 -10 9 -6 -3 -13 1
-16 9 -4 10 -18 16 -35 16 -17 0 -32 6 -35 15 -4 9 -19 15 -35 15 -16 0 -29 5
-29 10 0 6 -14 10 -30 10 -18 0 -33 6 -36 15 -4 8 -17 15 -31 15 -13 0 -31 7
-39 15 -9 8 -26 15 -40 15 -13 0 -24 5 -24 10 0 6 -13 10 -30 10 -20 0 -30 5
-30 15 0 10 -10 15 -29 15 -17 0 -33 5 -36 10 -3 6 -19 10 -36 10 -19 0 -29 5
-29 15 0 10 -10 15 -30 15 -16 0 -30 5 -30 10 0 6 -14 10 -30 10 -18 0 -33 6
-36 15 -4 9 -19 15 -35 15 -16 0 -29 4 -29 10 0 5 -16 12 -35 16 -19 3 -35 10
-35 15 0 5 -13 9 -30 9 -20 0 -30 5 -30 15 0 10 -11 15 -35 15 -19 0 -35 4
-35 9 0 5 -12 11 -27 13 -16 2 -27 8 -25 16 1 8 -10 12 -32 12 -19 0 -37 4
-41 9 -3 5 -19 12 -35 16 -17 4 -30 11 -30 16 0 5 -13 9 -30 9 -16 0 -30 4
-30 9 0 5 -16 12 -35 15 -20 4 -33 11 -30 17 4 5 -3 9 -14 9 -11 0 -26 7 -35
15 -14 15 -48 19 -73 8z"/>
<path d="M8318 5443 c-25 -3 -38 -9 -38 -19 0 -9 -11 -14 -30 -14 -16 0 -30
-4 -30 -10 0 -5 -16 -10 -35 -10 -24 0 -35 -5 -35 -15 0 -10 -10 -15 -30 -15
-16 0 -30 -4 -30 -10 0 -5 -16 -10 -35 -10 -24 0 -35 -5 -35 -15 0 -10 -10
-15 -30 -15 -16 0 -30 -4 -30 -10 0 -5 -14 -10 -30 -10 -18 0 -33 -6 -36 -15
-4 -8 -18 -15 -34 -15 -15 0 -30 -6 -33 -14 -3 -7 -18 -13 -33 -13 -16 0 -30
-6 -32 -12 -2 -6 -16 -11 -32 -11 -16 0 -30 -7 -34 -15 -3 -9 -18 -15 -36 -15
-16 0 -30 -4 -30 -10 0 -5 -13 -10 -30 -10 -20 0 -30 -5 -30 -15 0 -10 -11
-15 -35 -15 -19 0 -35 -4 -35 -10 0 -5 -13 -10 -30 -10 -20 0 -30 -5 -30 -15
0 -10 -10 -15 -29 -15 -16 0 -31 -5 -33 -10 -2 -6 -20 -11 -40 -12 -26 -1 -35
-5 -31 -15 4 -9 -4 -13 -26 -13 -17 0 -31 -4 -31 -9 0 -5 -16 -12 -35 -15 -19
-4 -35 -11 -35 -16 0 -6 -16 -10 -35 -10 -19 0 -35 -4 -35 -9 0 -5 -13 -12
-30 -16 -16 -4 -30 -11 -30 -16 0 -5 -9 -9 -20 -9 -11 0 -20 -4 -20 -10 0 -5
-11 -12 -24 -16 -14 -3 -27 -13 -30 -21 -4 -8 -13 -13 -21 -9 -9 3 -15 0 -15
-9 0 -8 -9 -15 -20 -15 -11 0 -20 -5 -20 -11 0 -5 -4 -7 -10 -4 -5 3 -10 1
-10 -4 0 -6 -7 -11 -15 -11 -8 0 -15 -4 -15 -10 0 -5 -9 -10 -20 -10 -12 0
-20 -7 -20 -16 0 -10 -6 -14 -15 -10 -9 3 -15 0 -15 -9 0 -8 -7 -15 -15 -15
-8 0 -15 -4 -15 -10 0 -5 -6 -10 -14 -10 -8 0 -16 -7 -20 -15 -3 -8 -12 -15
-21 -15 -8 0 -15 -7 -15 -15 0 -8 -7 -15 -15 -15 -8 0 -15 -7 -15 -15 0 -8 -6
-15 -14 -15 -8 0 -16 -10 -18 -22 -2 -13 -9 -22 -16 -20 -6 1 -12 -7 -12 -18
0 -11 -6 -23 -14 -26 -8 -3 -16 -19 -20 -36 -4 -21 -10 -28 -20 -25 -11 5 -16
-4 -18 -36 -2 -27 -7 -41 -15 -39 -10 1 -13 -19 -13 -78 l0 -80 35 0 c24 0 35
5 35 15 0 8 7 15 15 15 8 0 15 7 15 15 0 8 7 15 15 15 8 0 15 7 15 15 0 8 4
15 9 15 15 0 61 46 61 60 0 7 7 10 15 6 9 -3 15 0 15 9 0 8 4 15 9 15 6 0 22
11 36 24 15 14 40 28 56 31 16 4 29 11 29 16 0 5 6 9 14 9 8 0 17 7 20 16 3 8
10 13 15 10 5 -4 11 -1 13 6 2 6 15 13 28 15 14 2 28 10 33 18 4 8 21 15 37
15 17 0 30 5 30 10 0 6 6 10 14 10 8 0 16 7 20 15 3 9 18 15 36 15 16 0 30 5
30 10 0 6 14 10 30 10 20 0 30 5 30 15 0 10 10 15 29 15 17 0 31 6 35 16 4 10
13 13 27 9 14 -5 19 -3 15 3 -3 6 8 13 26 17 18 4 36 12 40 18 3 6 20 10 37
10 16 0 29 5 28 10 -1 5 11 11 27 14 16 2 35 11 43 19 8 7 22 14 32 14 10 0
21 3 25 8 8 7 14 9 47 11 11 0 18 5 14 10 -3 6 10 13 30 17 19 3 35 10 35 15
0 5 19 9 43 9 29 0 38 3 28 9 -11 7 -5 11 22 16 20 4 37 11 37 16 0 5 16 9 35
9 21 0 34 5 33 11 -2 6 11 14 27 16 17 2 32 8 33 14 2 5 7 9 12 9 5 0 21 5 37
12 35 14 39 15 64 17 11 0 18 5 14 10 -3 6 10 13 30 17 19 3 35 10 35 15 0 5
16 9 36 9 20 0 33 4 29 9 -3 6 10 13 30 17 19 3 35 10 35 15 0 5 16 9 35 9 23
0 34 4 33 13 -2 7 10 13 30 15 17 2 32 7 32 13 0 5 7 9 15 9 13 0 15 19 13
133 l-3 132 -25 1 c-14 1 -42 -1 -62 -3z"/>
<path d="M3535 6190 c0 -811 1 -1143 2 -737 2 405 2 1069 0 1475 -1 405 -2 73
-2 -738z"/>
<path d="M220 2300 c0 -40 4 -70 10 -70 6 0 10 -25 10 -55 0 -44 3 -53 15 -49
13 5 15 -14 16 -137 0 -86 4 -136 9 -124 l8 20 8 -20 c12 -26 12 -1204 0
-1230 l-8 -20 -9 20 c-5 13 -8 -27 -8 -105 1 -169 1 -163 -16 -156 -12 4 -15
-5 -15 -49 0 -30 -4 -55 -10 -55 -6 0 -10 -28 -10 -65 l0 -65 753 2 c744 3
752 3 753 23 2 42 4 47 19 41 12 -4 15 3 15 29 0 24 5 35 15 35 9 0 15 9 15
25 0 14 7 28 15 31 8 4 15 17 15 31 0 16 7 27 20 30 14 4 20 14 20 34 0 20 5
29 16 29 12 0 15 6 10 24 -6 24 14 52 27 39 4 -3 7 8 7 25 0 18 7 35 16 40 9
5 14 18 12 28 -4 24 -46 31 -54 10 -4 -10 -18 -16 -40 -16 -19 0 -34 -4 -34
-10 0 -5 -11 -10 -25 -10 -14 0 -28 -7 -31 -15 -4 -10 -20 -15 -49 -15 -29 0
-45 -5 -49 -15 -4 -10 -20 -15 -51 -15 -25 0 -45 -4 -45 -10 0 -5 -22 -10 -49
-10 -30 0 -51 -5 -53 -12 -3 -8 -33 -14 -81 -16 -42 -2 -77 -8 -77 -13 0 -5
-69 -9 -152 -9 -87 0 -147 -4 -140 -9 21 -13 -37 -21 -154 -21 l-104 0 0 360
0 360 84 0 c92 0 127 -7 104 -21 -7 -5 32 -9 95 -9 64 0 107 -4 107 -10 0 -5
20 -10 45 -10 33 0 45 -4 45 -15 0 -10 11 -15 35 -15 19 0 35 -4 35 -10 0 -5
16 -12 35 -16 19 -3 35 -10 35 -15 0 -5 11 -9 24 -9 25 0 36 16 36 52 0 14 5
18 15 14 11 -4 15 1 15 19 0 16 6 25 15 25 8 0 15 9 15 20 0 11 7 23 15 26 8
4 15 12 15 20 0 7 9 18 20 24 11 6 20 20 20 31 0 15 5 19 15 15 11 -4 15 1 15
19 0 16 6 25 15 25 8 0 15 9 15 20 0 11 7 23 15 26 9 4 15 19 15 40 l0 35
-450 -3 -450 -3 0 338 0 337 141 0 c102 0 150 -4 172 -14 18 -8 64 -17 102
-20 98 -6 189 -23 193 -35 2 -6 17 -11 34 -11 16 0 36 -7 44 -15 9 -8 24 -15
35 -15 10 0 19 -4 19 -10 0 -5 13 -10 29 -10 25 0 31 5 36 30 4 17 13 30 20
30 8 0 15 12 17 28 2 15 8 26 16 25 7 -2 12 7 12 22 0 14 7 28 15 31 8 4 15
15 15 25 0 11 6 22 14 25 8 3 16 19 20 36 4 21 10 29 21 24 11 -4 15 2 15 24
0 20 5 30 15 30 11 0 15 11 15 40 l0 40 -770 0 -770 0 0 -70z"/>
<path d="M4120 2329 c0 -32 -4 -42 -20 -46 -16 -4 -20 -14 -20 -45 0 -31 -3
-39 -14 -35 -11 5 -16 -4 -18 -36 -2 -27 -7 -41 -15 -40 -9 2 -13 -9 -13 -32
0 -21 -6 -38 -14 -41 -7 -3 -16 -23 -20 -45 -3 -21 -11 -39 -16 -39 -6 0 -10
-7 -10 -15 0 -9 9 -15 25 -15 14 0 25 5 25 10 0 6 15 10 34 10 20 0 36 6 39
14 4 9 15 12 32 8 16 -3 30 0 35 8 4 7 32 15 61 18 30 3 58 11 62 18 5 9 28
14 67 14 33 0 60 4 60 10 0 6 49 10 128 10 73 0 121 4 114 9 -10 6 -8 10 10
14 36 10 171 8 188 -3 10 -6 11 -10 3 -10 -10 0 -13 -167 -13 -802 0 -442 -3
-813 -6 -826 -4 -14 -12 -21 -20 -18 -11 4 -14 -9 -14 -64 0 -56 -3 -70 -15
-70 -11 0 -15 -12 -15 -45 0 -31 -5 -47 -15 -51 -8 -4 -15 -17 -15 -30 l0 -24
340 0 340 0 0 62 c0 34 -3 58 -7 55 -15 -16 -33 18 -33 63 0 33 -5 50 -15 54
-12 4 -15 25 -15 101 0 71 -3 94 -12 93 -10 -2 -14 156 -16 760 l-2 762 87 0
c99 0 142 -8 121 -21 -8 -5 18 -9 64 -9 42 0 80 -4 83 -10 3 -5 24 -10 45 -10
46 0 72 -9 64 -21 -3 -5 15 -9 39 -9 31 0 47 -5 51 -15 4 -10 20 -15 51 -15
25 0 45 -4 45 -10 0 -5 14 -10 30 -10 17 0 30 5 30 10 0 6 7 10 15 10 11 0 15
12 15 45 0 31 5 47 15 51 9 4 15 19 15 38 0 37 14 61 29 52 7 -5 11 9 11 44 0
42 3 51 15 46 12 -4 15 5 15 54 l0 60 -1015 0 -1015 0 0 -41z"/>
<path d="M3600 2330 c0 -6 -32 -10 -75 -10 -58 0 -77 -4 -81 -15 -5 -11 -23
-15 -75 -15 -38 0 -69 -4 -69 -9 0 -6 -19 -11 -42 -13 l-43 -3 -3 -48 c-2 -35
0 -47 10 -45 9 2 14 -15 16 -60 2 -41 7 -60 14 -56 5 4 14 0 19 -7 13 -20 12
-349 -1 -349 -6 0 -13 7 -16 15 -5 13 -35 15 -184 15 -128 0 -179 -3 -182 -12
-2 -6 -31 -13 -66 -16 -34 -2 -62 -8 -62 -13 0 -5 -16 -9 -35 -9 -23 0 -34 -4
-32 -12 1 -8 -11 -14 -30 -16 -18 -2 -33 -7 -33 -13 0 -5 -9 -9 -19 -9 -11 0
-26 -7 -35 -15 -8 -8 -22 -15 -30 -15 -9 0 -16 -7 -16 -16 0 -10 -6 -14 -14
-11 -8 3 -17 -1 -20 -9 -3 -9 -10 -13 -15 -10 -5 3 -20 -5 -32 -19 -13 -13
-29 -25 -35 -25 -7 0 -15 -7 -18 -16 -3 -8 -10 -13 -15 -10 -5 3 -11 -4 -14
-15 -3 -12 -10 -18 -16 -14 -7 3 -11 -2 -11 -14 0 -12 -7 -21 -15 -21 -8 0
-15 -7 -15 -15 0 -8 -6 -15 -14 -15 -8 0 -18 -9 -21 -20 -3 -11 -13 -20 -21
-20 -8 0 -14 -9 -14 -20 0 -11 -7 -20 -15 -20 -9 0 -15 -9 -15 -25 0 -16 -6
-25 -15 -25 -9 0 -15 -9 -15 -25 0 -14 -7 -28 -15 -31 -8 -4 -15 -16 -15 -28
0 -30 -15 -50 -30 -41 -10 6 -12 -1 -7 -29 7 -43 0 -66 -19 -66 -11 0 -14 -18
-14 -77 0 -43 -3 -96 -7 -118 -6 -36 -7 -38 -14 -15 -4 16 -7 -3 -7 -50 0 -44
3 -67 7 -56 7 18 8 18 14 -5 4 -13 7 -56 7 -96 0 -60 3 -71 15 -67 12 5 15 -2
15 -34 0 -31 4 -41 20 -45 14 -3 20 -14 20 -31 0 -16 6 -26 15 -26 8 0 15 -9
15 -19 0 -10 7 -21 15 -25 8 -3 15 -12 15 -21 0 -8 7 -15 15 -15 8 0 15 -9 15
-21 0 -11 4 -18 8 -15 5 3 23 -8 41 -24 18 -17 35 -30 37 -30 3 0 12 -7 20
-15 9 -8 24 -15 35 -15 10 0 19 -6 19 -13 0 -7 28 -21 65 -32 35 -10 62 -22
59 -27 -3 -4 13 -8 35 -8 23 0 41 -4 41 -10 0 -6 82 -10 225 -10 143 0 225 4
225 10 0 6 14 10 30 10 20 0 30 5 30 15 0 14 10 19 26 13 4 -2 11 7 15 20 5
13 13 20 19 17 5 -3 10 -1 10 6 0 7 21 33 48 58 l47 46 3 -88 3 -87 254 0 255
0 0 35 c0 24 -5 35 -15 35 -11 0 -15 12 -15 45 0 32 -4 45 -14 45 -8 0 -15 6
-17 13 -2 6 -2 428 1 937 4 733 8 924 18 923 8 -2 12 14 12 57 0 47 3 60 15
60 9 0 15 9 15 25 0 25 0 25 -95 25 -57 0 -95 -4 -95 -10z m-480 -874 c75 -15
81 -17 75 -26 -3 -6 5 -10 19 -10 14 0 26 -5 26 -10 0 -6 3 -9 8 -9 32 5 32 3
32 -476 l0 -475 -35 0 c-24 0 -35 -5 -35 -15 0 -11 -11 -15 -39 -15 -22 0 -43
-5 -46 -10 -4 -6 -60 -10 -135 -10 -75 0 -131 4 -135 10 -3 5 -19 10 -35 10
-16 0 -35 7 -44 15 -8 8 -22 15 -30 15 -9 0 -16 5 -16 10 0 6 -7 10 -16 10 -9
0 -27 11 -40 25 -13 14 -28 25 -34 25 -5 0 -10 9 -10 20 0 11 -6 19 -12 17 -7
-1 -14 10 -16 25 -2 19 -8 25 -18 21 -10 -4 -14 4 -14 31 0 24 -5 36 -14 36
-19 0 -26 22 -26 85 0 34 -5 55 -12 58 -10 3 -13 35 -13 117 0 82 3 115 13
118 8 2 12 27 12 75 0 74 10 105 29 93 7 -5 11 6 11 33 0 30 4 41 15 41 9 0
15 9 15 25 0 16 6 25 15 25 8 0 15 6 15 13 0 14 35 47 50 47 6 0 10 5 10 10 0
6 11 10 25 10 14 0 25 5 25 11 0 5 5 7 10 4 6 -3 10 -1 10 4 0 6 14 11 30 11
17 0 30 5 30 11 0 11 236 7 300 -5z"/>
<path d="M10110 2330 c0 -6 -35 -10 -86 -10 -47 0 -83 -4 -80 -9 9 -14 -20
-21 -90 -21 -35 0 -64 -4 -64 -9 0 -6 -19 -11 -42 -13 l-43 -3 -3 -48 c-2 -35
0 -47 10 -45 9 2 14 -14 16 -54 2 -43 7 -58 18 -58 12 0 14 -114 12 -872 -2
-692 -6 -872 -15 -870 -9 1 -13 -13 -13 -48 0 -36 -4 -52 -15 -56 -9 -4 -15
-19 -15 -40 l0 -34 290 0 290 0 0 35 c0 24 -5 35 -15 35 -11 0 -15 12 -15 51
0 34 -4 48 -11 43 -6 -3 -15 0 -20 7 -5 8 -9 238 -9 512 0 483 1 497 19 497
11 0 21 4 23 10 2 5 17 11 33 12 17 1 36 8 43 15 7 7 28 13 47 13 18 0 35 6
37 13 3 8 38 13 112 15 115 4 180 -3 171 -19 -4 -5 3 -9 14 -9 12 0 21 -5 21
-11 0 -5 5 -7 10 -4 6 3 13 0 16 -8 3 -8 14 -17 25 -20 11 -3 19 -14 19 -25 0
-11 7 -22 15 -26 22 -8 23 -951 1 -963 -8 -5 -16 -27 -18 -53 -2 -36 -7 -45
-20 -44 -14 1 -18 -6 -18 -37 l0 -39 290 0 c278 0 290 1 290 19 0 10 -7 21
-15 25 -10 3 -15 19 -15 45 0 25 -5 41 -15 45 -13 5 -15 72 -15 523 0 286 -4
512 -9 505 -13 -21 -21 10 -21 79 0 42 -4 58 -12 56 -8 -1 -14 11 -16 29 -2
22 -9 34 -23 37 -11 3 -19 14 -19 26 0 12 -6 21 -15 21 -8 0 -15 9 -15 21 0
12 -4 17 -11 14 -6 -4 -13 2 -16 14 -3 12 -10 21 -15 21 -5 0 -16 7 -24 15 -9
8 -24 15 -35 15 -11 0 -22 7 -25 15 -4 8 -10 12 -15 9 -5 -3 -12 2 -15 10 -4
12 -20 16 -55 16 -37 0 -49 4 -49 15 0 13 -26 15 -170 15 -142 0 -172 -2 -176
-15 -4 -11 -21 -15 -56 -15 -30 0 -47 -4 -43 -10 3 -6 -2 -13 -12 -17 -10 -4
-29 -20 -43 -35 -13 -15 -30 -28 -37 -28 -7 0 -13 -7 -13 -15 0 -8 -7 -15 -15
-15 -8 0 -15 -7 -15 -15 0 -8 -7 -15 -15 -15 -8 0 -15 -7 -15 -15 0 -8 -5 -15
-10 -15 -6 0 -21 -11 -34 -25 -13 -14 -25 -25 -27 -25 -8 0 6 655 14 668 5 7
12 10 17 7 5 -3 10 23 12 57 2 44 7 62 16 61 8 -2 12 10 12 37 l0 40 -85 0
c-50 0 -85 -4 -85 -10z"/>
<path d="M6908 1721 c16 -10 -16 -21 -60 -21 -16 0 -28 -4 -28 -10 0 -5 -16
-10 -36 -10 -19 0 -33 -4 -30 -9 4 -5 -7 -12 -23 -16 -16 -3 -32 -13 -35 -22
-4 -8 -13 -13 -21 -9 -9 3 -15 0 -15 -8 0 -12 -24 -25 -40 -22 -3 1 -26 -20
-51 -46 -25 -27 -50 -48 -56 -48 -6 0 -13 -9 -16 -21 -3 -12 -10 -18 -16 -14
-7 3 -11 -2 -11 -14 0 -12 -7 -21 -15 -21 -8 0 -15 -9 -15 -20 0 -11 -7 -23
-15 -26 -8 -4 -15 -15 -15 -26 0 -11 -8 -22 -20 -25 -14 -4 -20 -14 -20 -35 0
-22 -4 -29 -14 -25 -11 5 -16 -4 -18 -36 -2 -27 -7 -41 -15 -39 -9 1 -13 -13
-13 -47 0 -56 -8 -84 -21 -75 -5 3 -9 -74 -9 -182 0 -164 2 -188 17 -199 12
-9 16 -25 15 -54 -2 -31 1 -41 13 -41 11 0 15 -10 15 -35 0 -23 4 -34 13 -32
6 1 13 -10 15 -24 2 -17 11 -29 23 -32 10 -3 19 -12 19 -20 0 -8 7 -17 15 -21
8 -3 15 -12 15 -21 0 -8 7 -15 15 -15 8 0 15 -7 15 -15 0 -8 7 -15 15 -15 8 0
15 -7 15 -15 0 -8 4 -15 9 -15 6 0 22 -11 37 -25 14 -13 39 -30 55 -37 16 -7
29 -18 29 -25 0 -7 6 -10 14 -7 7 3 16 -1 19 -9 3 -9 19 -18 36 -22 17 -4 29
-11 25 -16 -3 -5 4 -9 15 -9 12 0 21 -4 21 -9 0 -4 21 -11 47 -14 26 -3 49
-10 51 -16 2 -6 17 -11 33 -11 16 0 29 -4 29 -10 0 -6 103 -10 290 -10 187 0
290 4 290 10 0 6 22 10 49 10 44 0 50 3 53 22 2 13 9 22 16 21 7 -2 12 9 12
27 0 19 7 33 20 40 12 6 20 21 20 36 0 19 4 25 15 20 12 -4 15 3 15 29 0 24 5
35 15 35 10 0 15 10 15 30 0 20 5 30 15 30 8 0 15 9 15 20 0 17 -7 20 -45 20
-25 0 -45 -4 -45 -10 0 -5 -16 -10 -35 -10 -24 0 -35 -5 -35 -15 0 -11 -12
-15 -44 -15 -25 0 -48 -4 -51 -10 -4 -6 -80 -10 -196 -10 -119 0 -189 4 -189
10 0 6 -14 10 -31 10 -17 0 -37 7 -45 15 -9 8 -24 15 -35 15 -10 0 -19 5 -19
10 0 6 -6 10 -14 10 -7 0 -25 11 -40 25 -15 14 -31 25 -37 25 -5 0 -9 7 -9 15
0 8 -7 15 -15 15 -9 0 -15 9 -15 25 0 15 -5 24 -12 22 -8 -1 -14 10 -16 26 -2
16 -8 25 -14 21 -13 -8 -28 14 -28 42 0 12 -7 24 -15 28 -11 4 -15 20 -15 56
0 34 -4 49 -12 47 -7 -1 -14 8 -16 21 l-3 22 530 0 531 0 0 151 c0 120 -3 153
-15 165 -10 10 -15 35 -15 75 0 46 -3 59 -15 59 -11 0 -15 11 -15 40 0 27 -4
39 -12 37 -8 -1 -14 11 -16 30 -2 23 -7 30 -18 26 -9 -3 -14 2 -14 16 0 11 -9
25 -20 31 -11 6 -20 17 -20 25 0 8 -7 15 -15 15 -8 0 -15 5 -15 10 0 13 -37
50 -50 50 -5 0 -10 7 -10 15 0 8 -14 17 -35 21 -19 3 -35 10 -35 15 0 5 -6 9
-14 9 -8 0 -16 7 -20 15 -3 9 -18 15 -36 15 -16 0 -30 5 -30 10 0 6 -20 10
-44 10 -30 0 -46 5 -50 15 -4 13 -35 15 -193 15 -107 0 -182 -4 -175 -9z m297
-261 c3 -4 21 -11 40 -14 19 -4 35 -11 35 -16 0 -6 7 -10 15 -10 8 0 15 -7 15
-15 0 -8 7 -15 15 -15 9 0 15 -9 15 -25 0 -18 4 -23 15 -19 11 5 15 -1 15 -20
0 -14 9 -34 20 -43 17 -15 20 -30 20 -95 l0 -78 -340 0 -340 0 0 35 c0 22 6
38 15 41 10 4 15 20 15 45 0 25 5 42 14 45 8 3 16 18 20 35 3 16 12 29 20 29
10 0 13 6 10 15 -4 9 1 18 12 22 11 4 24 14 31 22 7 9 13 12 13 8 0 -4 11 3
24 17 15 17 34 26 55 26 17 0 31 5 31 10 0 13 207 12 215 0z"/>
<path d="M8788 1721 c16 -10 -30 -21 -84 -21 -19 0 -34 -4 -34 -10 0 -5 -20
-10 -45 -10 -31 0 -47 -5 -51 -15 -4 -8 -18 -15 -34 -15 -16 0 -30 -7 -34 -15
-3 -8 -12 -15 -21 -15 -8 0 -15 -4 -15 -10 0 -5 -13 -10 -30 -10 -20 0 -30 -5
-30 -15 0 -8 -5 -15 -11 -15 -6 0 -17 -7 -26 -15 -8 -8 -19 -13 -24 -10 -5 4
-9 -1 -9 -9 0 -9 -6 -16 -14 -16 -8 0 -17 -7 -20 -16 -3 -8 -10 -12 -16 -9 -5
3 -10 -1 -10 -9 0 -9 -6 -16 -14 -16 -8 0 -16 -7 -20 -15 -3 -8 -12 -15 -21
-15 -8 0 -15 -7 -15 -15 0 -8 -7 -15 -15 -15 -8 0 -15 -9 -15 -20 0 -11 -6
-20 -14 -20 -8 0 -16 -10 -18 -22 -2 -13 -9 -22 -16 -20 -6 1 -12 -7 -12 -18
0 -11 -6 -23 -14 -26 -8 -3 -16 -18 -20 -35 -3 -16 -12 -29 -20 -29 -10 0 -16
-13 -18 -37 -2 -24 -8 -37 -15 -36 -9 2 -13 -12 -13 -46 0 -56 -8 -84 -21 -75
-5 3 -9 -61 -9 -150 0 -120 3 -155 13 -153 8 1 14 -17 17 -56 3 -31 10 -57 15
-57 6 0 11 -15 13 -34 2 -26 7 -33 18 -29 10 3 16 -4 20 -25 4 -17 12 -33 20
-36 8 -3 14 -12 14 -20 0 -7 7 -16 15 -20 8 -3 15 -12 15 -20 0 -7 7 -16 15
-20 8 -3 15 -13 15 -21 0 -9 5 -13 10 -10 6 3 13 -1 16 -9 3 -9 13 -16 20 -16
8 0 17 -7 20 -15 4 -8 12 -15 20 -15 8 0 14 -7 14 -15 0 -8 7 -15 15 -15 8 0
15 -4 15 -10 0 -5 7 -10 15 -10 8 0 15 -4 15 -10 0 -5 7 -10 15 -10 9 0 18 -7
21 -15 4 -8 17 -15 30 -15 12 0 27 -7 32 -16 5 -9 21 -17 36 -17 14 0 26 -3
26 -7 0 -4 16 -11 35 -14 19 -4 35 -11 35 -16 0 -6 14 -10 30 -10 17 0 30 -4
30 -10 0 -6 105 -10 295 -10 190 0 295 4 295 10 0 6 18 10 40 10 45 0 80 27
80 61 0 12 8 23 20 26 15 4 20 14 20 40 0 27 3 34 15 29 11 -4 15 2 15 25 0
17 6 32 15 35 8 4 15 17 15 30 0 14 7 27 15 30 8 4 15 17 15 30 0 22 -4 24
-45 24 -25 0 -45 -4 -45 -10 0 -5 -22 -10 -50 -10 -38 0 -50 -4 -50 -15 0 -11
-12 -15 -50 -15 -27 0 -50 -4 -50 -10 0 -6 -65 -10 -175 -10 -110 0 -175 4
-175 10 0 6 -12 10 -27 10 -40 0 -74 11 -67 21 3 5 -4 9 -15 9 -12 0 -21 4
-21 9 0 5 -12 12 -26 15 -14 4 -38 20 -54 36 -16 17 -34 30 -40 30 -5 0 -10 9
-10 20 0 13 -5 18 -15 14 -11 -5 -15 1 -15 19 0 16 -7 26 -20 30 -13 3 -20 14
-20 30 0 14 -7 27 -15 31 -11 4 -15 20 -15 55 0 34 -4 51 -15 55 -12 4 -15 30
-15 146 0 116 3 142 15 146 10 4 15 20 15 50 0 30 5 46 15 50 8 4 15 16 15 29
0 24 22 49 33 38 4 -3 7 6 7 20 0 17 5 27 15 27 8 0 15 6 15 13 1 25 110 104
124 90 3 -4 6 -1 6 5 0 7 6 12 14 12 8 0 16 6 19 13 3 7 24 14 48 15 24 2 46
7 47 13 5 12 259 12 267 -1 3 -5 24 -10 46 -10 28 0 39 -4 39 -15 0 -10 11
-15 35 -15 19 0 35 -4 35 -10 0 -5 7 -10 15 -10 8 0 15 -7 15 -16 0 -8 5 -12
10 -9 6 3 13 -1 16 -9 3 -9 12 -16 20 -16 8 0 14 -7 14 -15 0 -11 12 -15 50
-15 l50 0 0 190 0 190 -57 0 c-72 0 -110 9 -91 21 7 5 -104 9 -252 9 -148 0
-259 -4 -252 -9z"/>
<path d="M12060 1715 c0 -11 -12 -15 -50 -15 -27 0 -50 -4 -50 -10 0 -5 -16
-10 -35 -10 -23 0 -35 -5 -35 -14 0 -8 -11 -13 -26 -13 -15 0 -31 -8 -36 -17
-5 -9 -16 -16 -23 -16 -8 0 -15 -4 -15 -9 0 -5 -13 -12 -29 -16 -16 -3 -32
-13 -35 -21 -3 -9 -10 -12 -16 -9 -5 3 -10 -1 -10 -10 0 -8 -7 -18 -15 -21 -8
-4 -15 -13 -15 -20 0 -8 -7 -17 -15 -20 -8 -3 -17 -14 -20 -25 -4 -10 -13 -19
-20 -19 -9 0 -15 -14 -17 -37 -2 -24 -8 -37 -15 -35 -10 1 -13 -24 -13 -103 0
-89 2 -104 15 -99 12 5 15 -3 15 -39 0 -36 3 -45 17 -43 10 0 19 -8 21 -19 2
-11 10 -24 18 -28 8 -4 14 -15 14 -22 0 -8 7 -15 15 -15 8 0 15 -7 15 -15 0
-8 7 -15 15 -15 8 0 15 -7 15 -15 0 -8 7 -15 15 -15 8 0 15 -7 15 -15 0 -8 5
-15 11 -15 6 0 30 -14 54 -30 24 -17 48 -30 54 -30 6 0 11 -7 11 -15 0 -8 9
-15 20 -15 11 0 20 -4 20 -10 0 -5 6 -10 14 -10 8 0 23 -11 34 -24 10 -14 31
-28 45 -32 15 -3 27 -10 27 -15 0 -5 7 -9 16 -9 9 0 27 -11 40 -25 13 -14 28
-25 34 -25 5 0 10 -7 10 -15 0 -9 6 -12 15 -9 11 4 15 0 15 -17 0 -12 3 -19 7
-16 11 12 33 -15 33 -40 0 -13 4 -22 9 -19 5 3 12 -1 15 -10 10 -27 7 -54 -8
-60 -8 -3 -16 -19 -20 -36 -4 -20 -10 -28 -20 -25 -8 3 -16 -2 -19 -15 -3 -11
-10 -17 -16 -13 -6 3 -11 1 -11 -5 0 -7 -7 -10 -15 -6 -9 3 -15 0 -15 -9 0
-22 -225 -22 -234 0 -3 10 -19 15 -46 15 -22 0 -40 5 -40 10 0 6 -9 10 -20 10
-11 0 -20 4 -20 8 0 5 -20 17 -45 28 -25 10 -45 24 -45 31 0 7 -6 13 -14 13
-8 0 -16 7 -20 15 -3 8 -12 15 -20 15 -8 0 -16 10 -18 23 -2 16 -10 22 -28 22
l-25 0 -3 -202 -2 -203 22 0 c36 0 68 -11 62 -21 -3 -5 20 -9 50 -9 31 0 56
-4 56 -10 0 -6 98 -10 275 -10 177 0 275 4 275 10 0 6 13 10 29 10 16 0 31 6
35 15 3 9 18 15 35 15 17 0 31 6 35 16 3 8 10 12 16 9 5 -3 10 1 10 9 0 9 9
16 20 16 11 0 20 5 20 10 0 6 6 10 14 10 8 0 17 7 20 16 3 8 10 13 15 10 5 -3
11 4 14 15 3 12 10 18 16 14 6 -3 11 1 11 10 0 8 6 18 14 21 8 3 16 14 19 25
3 10 12 19 21 19 10 0 16 9 16 25 0 14 5 25 10 25 6 0 10 58 10 155 0 97 -4
155 -10 155 -5 0 -10 8 -10 19 0 10 -9 21 -20 24 -11 3 -20 12 -20 20 0 8 -7
17 -15 21 -8 3 -15 12 -15 21 0 8 -7 15 -15 15 -8 0 -15 7 -15 15 0 8 -7 15
-15 15 -8 0 -15 7 -15 15 0 8 -7 15 -16 15 -9 0 -27 11 -40 25 -13 14 -28 25
-34 25 -5 0 -10 5 -10 10 0 6 -7 10 -15 10 -8 0 -15 7 -15 15 0 8 -6 15 -14
15 -7 0 -25 11 -40 25 -14 13 -27 25 -29 25 -34 8 -47 14 -47 21 0 5 -7 9 -15
9 -8 0 -15 5 -15 10 0 6 -7 10 -16 10 -9 0 -27 11 -40 25 -13 14 -28 25 -34
25 -5 0 -10 5 -10 10 0 6 -7 10 -15 10 -8 0 -15 6 -15 14 0 7 -9 16 -20 19
-11 3 -20 12 -20 20 0 8 -7 17 -15 21 -11 4 -15 22 -15 68 0 55 3 65 26 85 15
12 31 20 35 17 5 -3 9 2 9 10 0 11 9 16 30 16 17 0 30 5 30 10 0 6 45 10 115
10 70 0 115 -4 115 -10 0 -5 14 -10 30 -10 20 0 30 -5 30 -15 0 -10 10 -15 29
-15 16 0 39 -10 55 -25 15 -14 31 -25 37 -25 5 0 9 -7 9 -16 0 -11 8 -14 33
-12 l32 3 3 145 c4 189 3 190 -53 190 -25 0 -45 5 -45 10 0 6 -12 10 -27 10
-40 0 -74 11 -67 21 3 5 -79 9 -190 9 -168 0 -196 -2 -196 -15z"/>
</g>
</svg>
